<?xml version="1.0" standalone="no"?>
<!DOCTYPE svg PUBLIC "-//W3C//DTD SVG 20010904//EN"
 "http://www.w3.org/TR/2001/REC-SVG-20010904/DTD/svg10.dtd">
<svg version="1.0" xmlns="http://www.w3.org/2000/svg"
 width="1024.000000pt" height="1024.000000pt" viewBox="0 0 1024.000000 1024.000000"
 preserveAspectRatio="xMidYMid meet">

<g transform="translate(0.000000,1024.000000) scale(0.100000,-0.100000)"
fill="#000000" stroke="none">
<path d="M5201 9116 c2 -2 83 -51 179 -108 203 -122 460 -255 680 -353 508
-224 1120 -410 1635 -495 66 -11 131 -23 145 -26 23 -6 24 -7 5 -14 -34 -14
-112 -11 -249 11 -276 43 -447 79 -596 123 -25 8 -72 21 -105 30 -33 8 -107
29 -164 46 -62 18 -109 26 -114 21 -10 -10 211 -84 443 -150 80 -22 168 -47
195 -55 50 -14 49 -14 -72 -12 -108 1 -124 -1 -140 -18 -13 -13 -14 -17 -3
-12 8 4 6 0 -4 -8 -11 -9 -16 -16 -10 -16 5 0 2 -5 -6 -11 -11 -8 -12 -12 -2
-16 6 -2 12 -11 12 -19 0 -13 12 -18 33 -15 4 0 7 -4 7 -10 0 -5 4 -8 8 -5 5
3 23 -4 40 -15 18 -10 39 -19 48 -19 8 0 17 -7 20 -15 4 -8 13 -15 20 -15 8 0
18 -10 23 -22 12 -31 40 -54 75 -62 46 -11 26 -14 -34 -6 -192 28 -275 42
-280 48 -3 4 -23 8 -45 10 -40 2 -40 2 -15 -13 14 -8 21 -15 15 -15 -5 -1 4
-8 20 -15 48 -22 19 -17 -140 24 -500 131 -1068 362 -1541 627 -83 46 -155 84
-160 84 -6 0 -80 -39 -164 -86 -402 -224 -852 -419 -1281 -554 -464 -146 -927
-245 -1397 -299 l-147 -17 -3 -284 c-4 -376 22 -742 78 -1125 47 -319 168
-801 283 -1125 158 -444 378 -892 614 -1254 65 -99 284 -407 367 -515 9 -12 6
-13 -19 -7 -16 4 -42 10 -57 13 -29 6 -107 91 -232 258 -38 50 -71 93 -75 97
-3 4 -5 -15 -4 -42 0 -28 -3 -50 -9 -50 -5 0 -6 -4 -3 -10 3 -5 -2 -10 -12
-10 -15 0 -16 -2 -3 -10 13 -9 13 -10 0 -11 -8 -1 -18 -1 -22 0 -5 0 -8 -5 -8
-13 0 -19 -21 -26 -44 -14 -13 7 -16 7 -11 -2 4 -7 1 -11 -6 -9 -28 3 -49 -1
-49 -11 0 -5 8 -6 17 -3 15 6 16 5 3 -9 -9 -10 -17 -12 -21 -6 -4 6 -11 8 -17
4 -5 -3 -24 17 -42 44 -18 28 -34 50 -37 50 -17 0 226 -344 387 -548 60 -75
107 -138 106 -140 -8 -7 -36 12 -36 24 0 8 -6 14 -12 15 -7 0 -37 30 -67 66
-48 57 -57 64 -83 61 -34 -5 -57 19 -204 217 -452 612 -773 1278 -974 2020
-210 779 -299 1592 -260 2386 13 267 15 283 50 323 45 50 88 62 288 80 936 85
1847 356 2625 783 64 35 117 66 117 67 0 2 -109 -51 -242 -118 -747 -373
-1402 -573 -2223 -675 -88 -11 -230 -25 -315 -31 -85 -7 -176 -18 -202 -26
-54 -18 -129 -91 -146 -145 -31 -95 -44 -805 -22 -1134 82 -1205 424 -2335
968 -3205 202 -322 388 -570 695 -928 l149 -173 -20 -47 c-33 -79 -43 -141
-45 -292 -1 -114 2 -159 16 -210 69 -247 244 -421 494 -492 151 -43 358 -24
504 46 l51 24 116 -85 c154 -113 489 -333 525 -346 48 -16 120 -3 179 33 272
171 743 497 901 623 l38 31 50 -18 c107 -39 227 -5 359 101 154 123 607 583
915 928 49 55 125 141 170 190 83 91 388 446 526 610 76 90 344 424 474 590
167 214 191 264 183 384 -6 78 -20 109 -83 179 -91 101 -239 146 -364 109 -28
-8 -53 -12 -55 -8 -3 4 2 34 10 67 14 53 19 62 47 72 54 20 173 94 242 152
155 128 294 354 400 645 93 257 108 322 93 405 -15 82 -85 220 -127 248 -66
43 -145 22 -241 -64 -101 -91 -170 -147 -176 -141 -3 2 0 58 5 123 40 433 51
926 31 1312 -12 233 -20 272 -65 333 -52 72 -112 96 -255 104 -602 34 -1370
203 -1965 433 -361 140 -787 346 -1072 519 -59 36 -100 55 -82 39z m36 -1252
c78 -40 125 -84 162 -154 79 -148 38 -302 -105 -401 l-44 -30 0 -374 c0 -239
-4 -384 -11 -402 -13 -36 -64 -89 -98 -102 -14 -5 -96 -31 -181 -56 -146 -43
-489 -149 -645 -199 l-70 -23 -2 -521 -1 -522 60 -22 c80 -29 118 -61 118 -99
0 -43 -25 -84 -59 -99 -28 -11 -46 -7 -218 55 -103 37 -233 82 -288 100 -231
75 -371 129 -397 153 -51 47 -31 131 34 147 15 4 116 -25 278 -79 140 -48 261
-86 268 -86 9 0 12 108 12 508 0 507 0 508 23 552 15 30 35 52 62 67 36 19
428 145 700 224 55 16 128 39 163 50 l62 21 -2 341 -3 342 -42 20 c-102 48
-176 144 -192 247 -10 62 7 187 33 235 10 20 31 39 51 47 19 8 50 27 69 41 42
32 73 41 150 44 47 2 69 -3 113 -25z m1346 -418 c48 -18 74 -41 99 -90 25 -50
21 -134 -9 -174 -44 -59 -132 -87 -198 -62 -24 9 -40 1 -163 -78 -75 -48 -158
-100 -184 -115 l-48 -28 0 -547 0 -548 -25 -51 c-18 -35 -36 -56 -58 -66 -39
-18 -444 -154 -587 -197 -58 -18 -123 -42 -145 -54 -22 -13 -67 -32 -100 -44
-33 -11 -76 -27 -95 -35 -52 -21 -114 -31 -105 -17 6 9 2 9 -13 1 -27 -14 -27
-22 -31 -600 -1 -266 -6 -494 -11 -505 -18 -49 -75 -75 -121 -55 -60 24 -59
14 -59 638 0 315 4 580 9 593 19 50 120 138 166 144 11 2 34 6 50 10 17 4 42
7 57 7 15 0 26 4 25 10 -2 9 91 40 158 52 17 3 59 15 95 26 36 11 76 23 90 25
37 7 145 39 338 100 l172 55 0 527 c0 337 4 541 11 565 17 63 60 99 263 223
184 112 195 120 201 154 13 67 60 121 124 140 37 12 51 11 94 -4z m-1935 -66
c30 -28 30 -85 -1 -112 -50 -45 -428 -186 -772 -289 -181 -54 -500 -139 -523
-139 -5 0 -12 9 -15 20 -3 11 -1 20 4 20 6 0 6 7 0 19 -6 10 -7 21 -4 25 3 3
1 6 -6 6 -7 0 -9 5 -5 12 4 6 -1 17 -10 24 -16 11 -14 13 13 19 17 3 35 4 40
1 5 -4 11 -2 13 2 1 5 85 32 186 61 323 92 740 238 947 332 54 25 106 24 133
-1z m3868 -45 c-3 -8 -1 -15 5 -15 6 0 7 -4 4 -10 -3 -5 -1 -10 4 -10 15 0 14
-76 -1 -103 -7 -12 -12 -42 -13 -66 0 -26 -5 -46 -12 -48 -10 -4 -13 19 -13
94 0 111 8 173 22 173 6 0 8 -7 4 -15z m-299 -85 c34 -21 63 -66 63 -100 0
-43 -34 -86 -98 -124 -8 -5 -16 3 -24 24 l-11 32 -20 -20 c-13 -13 -21 -35
-21 -59 -2 -45 -12 -64 -30 -57 -8 3 -17 0 -21 -5 -3 -6 -10 -9 -15 -6 -10 6
-31 -19 -34 -41 -2 -10 -22 -34 -46 -53 -24 -20 -41 -31 -37 -25 11 18 -29 24
-52 7 -21 -14 -30 -40 -10 -27 6 3 4 -7 -4 -22 -8 -16 -46 -55 -84 -88 -83
-71 -100 -97 -113 -169 -23 -124 37 -280 158 -409 60 -63 90 -86 158 -120 74
-36 95 -42 168 -46 63 -3 91 0 117 12 33 16 256 196 486 394 118 101 149 121
196 122 25 0 31 -7 54 -56 29 -65 27 -103 -14 -224 -113 -333 -298 -665 -431
-776 -80 -67 -217 -136 -327 -165 -101 -27 -334 -37 -439 -20 -84 14 -213 54
-276 86 -25 12 -56 26 -70 30 -85 27 -309 224 -389 343 -65 96 -128 236 -158
347 -35 134 -38 346 -5 467 44 161 109 280 219 399 129 139 398 265 689 323
264 52 368 59 421 26z m308 -330 l7 -55 -22 32 c-16 25 -20 40 -15 64 10 43
22 25 30 -41z m-5236 -277 c-1 -96 -5 -144 -9 -123 -4 19 -8 29 -9 23 0 -7 -8
-13 -16 -13 -8 0 -15 6 -15 13 0 8 -4 7 -10 -3 -6 -10 -10 -11 -10 -2 0 6 -9
12 -20 12 -11 0 -20 6 -20 13 0 8 -4 7 -10 -3 -13 -21 -13 -3 1 22 8 15 8 19
0 14 -6 -4 -11 -1 -12 6 -1 7 -5 2 -9 -12 -7 -21 -8 -19 -8 15 0 22 2 34 5 28
2 -7 9 -13 15 -13 6 0 7 7 4 16 -3 8 -2 13 2 10 4 -2 14 9 21 25 7 16 18 29
25 29 7 0 21 9 31 20 14 16 20 17 27 8 4 -8 8 4 8 30 0 23 2 42 5 42 3 0 4
-71 4 -157z m3592 -751 c37 -113 128 -278 192 -349 11 -13 18 -26 14 -29 -12
-12 117 -146 201 -209 92 -68 255 -154 346 -179 32 -10 56 -20 53 -22 -3 -3
-42 -18 -86 -34 -136 -47 -262 -126 -416 -261 -248 -217 -343 -306 -740 -695
-214 -210 -412 -400 -440 -421 -27 -22 -56 -47 -64 -56 -19 -24 -30 -21 -74
16 l-38 33 31 42 c18 25 35 40 42 36 7 -5 8 -3 3 5 -5 9 -19 1 -49 -28 -43
-42 -59 -45 -94 -18 -10 8 75 99 355 379 202 203 367 374 365 381 -2 7 0 9 4
4 9 -8 46 22 39 33 -3 4 3 14 13 21 16 13 16 12 3 -6 -8 -11 76 70 187 179
209 208 247 258 258 340 12 84 -54 181 -151 222 -46 19 -132 17 -177 -4 -23
-10 -299 -276 -725 -698 -404 -400 -705 -690 -728 -702 -46 -24 -376 -340
-375 -360 0 -8 5 -10 13 -6 6 4 -101 -107 -240 -248 -213 -215 -253 -261 -262
-296 -15 -53 -5 -72 54 -106 25 -15 72 -54 104 -88 75 -76 107 -98 149 -98 30
0 50 16 175 139 78 76 169 163 202 194 l60 56 17 -22 c10 -12 18 -24 18 -27 0
-3 -30 -36 -65 -75 -72 -77 -72 -72 -23 -168 16 -32 25 -63 21 -70 -4 -7 -33
-41 -64 -77 -97 -109 -313 -411 -374 -524 -180 -329 -540 -462 -859 -317 -106
48 -245 169 -253 220 -1 7 -7 19 -14 25 -9 8 -10 8 -5 -1 4 -7 4 -13 1 -13
-16 0 -65 134 -75 208 -33 244 86 476 327 637 278 185 535 400 948 791 315
298 1612 1598 1722 1725 114 133 259 330 304 414 34 61 109 258 109 283 0 10
3 22 7 26 5 4 13 -25 20 -64 7 -40 22 -102 34 -138z m-3651 22 c135 -40 220
-151 220 -287 0 -124 -59 -221 -168 -274 -49 -24 -69 -28 -142 -28 -73 0 -92
4 -135 27 -110 58 -164 147 -165 268 0 120 58 220 156 269 86 44 149 50 234
25z m3544 -813 c4 -5 -3 -7 -14 -4 -23 6 -26 13 -6 13 8 0 17 -4 20 -9z m-212
-53 c-15 -15 -16 -42 -2 -33 6 4 10 3 9 -2 -4 -22 3 -33 21 -33 11 0 20 -4 20
-8 0 -5 26 -10 57 -11 32 -1 60 -7 64 -12 4 -7 9 -5 12 4 6 16 47 12 47 -4 0
-5 7 -9 16 -9 8 0 13 -4 9 -9 -3 -5 -1 -12 5 -16 7 -4 7 -13 -1 -26 -5 -11 -8
-32 -6 -48 4 -25 -9 -42 -125 -157 -72 -71 -128 -123 -124 -116 7 11 -38 38
-57 33 -4 0 -15 -2 -25 -4 -9 -1 -22 -6 -29 -10 -6 -4 -15 -3 -18 3 -5 8 -11
7 -21 -1 -11 -9 -16 -6 -25 14 -6 14 -23 27 -38 31 -33 7 -49 17 -53 35 -2 8
-14 28 -27 43 l-25 28 -35 -31 c-20 -18 51 54 157 159 106 106 195 192 199
192 4 0 2 -5 -5 -12z m2056 -223 c66 -20 103 -70 110 -149 8 -95 -27 -151
-296 -484 -68 -83 -162 -195 -210 -248 -48 -54 -109 -123 -135 -156 -44 -53
-70 -76 -51 -46 5 7 -15 -7 -44 -31 -28 -24 -54 -53 -58 -65 -10 -32 -34 -56
-81 -77 -42 -19 -83 -64 -83 -92 0 -20 -57 -80 -69 -73 -5 3 -56 -47 -113
-111 -443 -504 -990 -1055 -1141 -1150 -44 -29 -60 -33 -117 -33 -82 0 -125
19 -212 94 -37 32 -72 55 -77 52 -5 -4 -12 -2 -15 3 -4 5 -14 8 -24 6 -9 -1
-23 3 -31 9 -12 9 -13 8 -7 -4 17 -29 -148 137 -256 260 -264 298 -541 668
-609 814 -37 78 -62 195 -53 244 13 70 50 137 100 181 61 54 112 77 189 85
165 18 296 -54 672 -366 171 -142 196 -158 251 -158 80 0 104 16 502 339 371
301 872 682 1125 856 362 250 428 288 550 319 33 8 126 -1 183 -19z m-2409
-340 c0 -5 -6 -1 -14 9 -17 23 -20 14 -5 -14 7 -13 7 -21 0 -25 -7 -4 -7 -12
0 -25 7 -14 6 -23 -5 -34 -9 -8 -16 -19 -16 -23 -1 -4 -5 -7 -11 -5 -5 1 -7
-2 -4 -6 7 -12 -35 -62 -52 -62 -7 0 -12 -8 -13 -17 0 -15 -2 -15 -7 -3 -4 9
-21 15 -40 16 -22 0 -29 -3 -22 -10 5 -5 10 -17 10 -25 0 -14 -1 -14 -10 -1
-5 8 -10 11 -10 5 0 -13 -46 -66 -52 -60 -2 3 -5 -2 -5 -10 0 -8 4 -12 9 -9 4
3 8 -1 8 -8 0 -10 2 -10 9 1 6 10 11 5 17 -20 4 -19 8 -36 7 -39 0 -3 -3 -20
-7 -38 -3 -18 -2 -31 3 -27 5 3 4 -6 -2 -20 -7 -14 -18 -25 -25 -25 -7 0 -11
-4 -8 -8 3 -5 -1 -9 -9 -9 -8 0 -12 4 -9 8 2 4 -5 7 -16 6 -11 -1 -20 -4 -20
-8 0 -4 -8 -5 -17 -3 -10 2 -23 1 -29 -3 -13 -9 -54 -91 -54 -108 0 -22 -67
-8 -133 28 -72 39 -100 61 -90 71 4 3 -1 6 -11 6 -9 0 -15 4 -12 9 3 5 -1 14
-9 21 -12 10 -13 16 -3 28 11 13 11 14 -2 7 -8 -4 0 8 19 28 19 20 39 33 44
30 6 -3 7 -2 4 4 -3 5 26 41 65 79 40 38 65 60 57 49 -8 -11 -18 -23 -24 -27
-5 -4 10 -6 35 -5 29 1 50 8 58 20 7 9 18 15 23 12 5 -4 9 0 10 7 0 10 2 10 6
1 2 -7 9 -13 14 -13 6 0 7 5 4 10 -6 9 8 14 28 11 4 0 7 6 7 15 0 9 5 12 12 8
6 -4 8 -3 4 4 -7 12 41 65 53 58 10 -6 16 37 10 64 -2 8 2 14 9 12 7 -1 21 5
30 15 16 16 16 16 0 10 -10 -3 -18 -2 -18 3 0 6 5 10 11 10 6 0 9 6 6 13 -2 6
-15 10 -28 8 -24 -3 -24 -3 -5 18 11 12 22 18 25 13 9 -13 55 -36 47 -24 -3 6
-2 13 4 17 5 3 10 1 10 -5 0 -6 5 -8 10 -5 6 3 10 0 11 -7 0 -10 2 -10 6 1 4
11 7 11 13 0 7 -10 11 -10 24 0 9 8 16 10 16 5 0 -4 8 1 17 13 16 19 18 20 30
5 7 -10 12 -21 12 -27z m-672 -480 c-7 -7 -15 -11 -18 -9 -3 2 -26 -11 -50
-28 l-44 -31 49 51 c37 39 53 49 62 41 10 -8 11 -14 1 -24z m303 -2270 c-11
-14 -14 -13 -25 2 -19 26 2 51 23 29 13 -12 13 -18 2 -31z m-332 -187 c-2 -7
4 -11 12 -10 8 2 12 1 8 -3 -11 -11 20 -37 34 -29 9 5 10 4 3 -3 -13 -14 -341
-225 -382 -246 -66 -35 -99 -25 -247 73 -75 49 -136 93 -136 98 0 5 13 21 29
36 l28 27 54 -32 c30 -18 81 -50 114 -71 102 -66 99 -66 307 68 84 55 167 104
175 104 2 0 2 -6 1 -12z"/>
<path d="M7859 6843 c-13 -16 -12 -17 4 -4 9 7 17 15 17 17 0 8 -8 3 -21 -13z"/>
<path d="M7709 6723 c-13 -16 -12 -17 4 -4 16 13 21 21 13 21 -2 0 -10 -8 -17
-17z"/>
<path d="M8978 6373 c7 -3 16 -2 19 1 4 3 -2 6 -13 5 -11 0 -14 -3 -6 -6z"/>
<path d="M5913 3717 c3 -8 -7 -19 -25 -26 -28 -13 -28 -14 -12 -32 24 -27 48
-24 89 13 l37 31 -24 13 c-31 18 -72 18 -65 1z"/>
<path d="M3995 2724 c-88 -18 -156 -44 -148 -57 3 -6 1 -7 -6 -3 -7 5 -24 -6
-43 -26 -17 -18 -28 -26 -24 -18 4 8 -11 -5 -33 -29 -86 -91 -125 -221 -107
-346 7 -43 9 -46 25 -31 15 14 18 11 33 -32 38 -107 137 -207 227 -232 20 -5
74 -8 121 -7 71 2 96 7 151 34 37 17 84 47 106 67 81 73 140 229 130 342 -8
79 -65 203 -113 243 -88 72 -227 113 -319 95z m-240 -144 c-10 -11 -20 -18
-23 -15 -3 3 3 14 13 25 10 11 20 18 23 15 3 -3 -3 -14 -13 -25z m345 -485
c84 -84 84 -84 50 -80 -81 9 -128 27 -160 60 l-33 34 24 36 c13 19 26 35 29
35 3 0 43 -38 90 -85z m-227 -38 c53 -51 97 -96 97 -101 0 -10 -57 3 -95 21
-42 21 -95 74 -95 94 0 10 -4 21 -10 24 -12 7 -14 55 -2 55 5 0 52 -42 105
-93z"/>
<path d="M6259 4753 c-13 -16 -12 -17 4 -4 9 7 17 15 17 17 0 8 -8 3 -21 -13z"/>
<path d="M4804 8984 c-18 -14 -18 -15 4 -4 12 6 22 13 22 15 0 8 -5 6 -26 -11z"/>
<path d="M6838 7963 c7 -3 16 -2 19 1 4 3 -2 6 -13 5 -11 0 -14 -3 -6 -6z"/>
<path d="M7226 7881 c-3 -5 3 -11 15 -14 16 -4 18 -3 8 9 -13 16 -16 17 -23 5z"/>
</g>
</svg>
